<svg enable-background="new 0 0 52 27" viewBox="0 0 52 27" xmlns="http://www.w3.org/2000/svg" xmlns:xlink="http://www.w3.org/1999/xlink"><clipPath id="a"><path d="m.2.3h51.3v26.6h-51.3z"/></clipPath><clipPath id="b"><path d="m.2.3h51.3v26.6h-51.3z"/></clipPath><g fill="#ececec"><path d="m.2.3h2.4v9.3h-2.4z"/><path d="m4.5.3v9.3h7.4v-1.9h-5v-1.8h4.4v-1.9h-4.4v-1.7h4.9v-2z"/><path clip-path="url(#a)" d="m17.9 2.3c-1.4 0-2.5 1.1-2.5 2.6s1.1 2.6 2.5 2.6c.8 0 1.7-.4 2.3-1.1l1.4 1.6c-1 1-2.5 1.7-3.9 1.7-2.8 0-4.9-2-4.9-4.8 0-2.7 2.1-4.7 5-4.7 1.4 0 2.8.6 3.8 1.6l-1.4 1.7c-.6-.7-1.5-1.2-2.3-1.2"/></g><path d="m47.4 13.2-4.5 5.9v1.4l4.8 6.2h3.9l-5.5-7.1 5.1-6.4z" fill="#e20613"/><g fill="#fff"><path d="m.2 13.2v13.5h9.3v-3h-5.7v-10.5z"/><path clip-path="url(#b)" d="m13.1 19.9c0 2.2 1.7 3.9 3.7 3.9s3.6-1.7 3.6-3.9-1.6-3.9-3.6-3.9-3.7 1.7-3.7 3.9m10.9 0c0 3.9-3.1 6.9-7.3 6.9s-7.3-3-7.3-6.9 3.1-6.8 7.3-6.8 7.3 2.9 7.3 6.8"/><path clip-path="url(#b)" d="m32 16.1c-2.1 0-3.7 1.6-3.7 3.8s1.6 3.8 3.7 3.8c1.1 0 2.4-.6 3.4-1.6l2.1 2.2c-1.4 1.5-3.6 2.5-5.6 2.5-4.1 0-7.1-3-7.1-6.9s3.1-6.8 7.2-6.8c2 0 4.1.9 5.4 2.3l-2 2.4c-1-1-2.2-1.7-3.4-1.7"/><path d="m38.9 13.2v13.5h3.5v-3.3-4.6-5.6z"/></g></svg>